<svg width="512" height="512" viewBox="0 0 512 512" fill="none" xmlns="http://www.w3.org/2000/svg">
  <defs>
    <linearGradient id="bg" x1="68" y1="52" x2="442" y2="460" gradientUnits="userSpaceOnUse">
      <stop stop-color="#0F0B16"/>
      <stop offset="1" stop-color="#060509"/>
    </linearGradient>
    <linearGradient id="stroke" x1="126" y1="120" x2="382" y2="390" gradientUnits="userSpaceOnUse">
      <stop stop-color="#C4B5FD"/>
      <stop offset="0.45" stop-color="#8B5CF6"/>
      <stop offset="1" stop-color="#6D28D9"/>
    </linearGradient>
    <linearGradient id="strokeSoft" x1="162" y1="118" x2="332" y2="336" gradientUnits="userSpaceOnUse">
      <stop stop-color="#E9DDFF" stop-opacity="0.98"/>
      <stop offset="1" stop-color="#A78BFA" stop-opacity="0.88"/>
    </linearGradient>
    <radialGradient id="glow" cx="0" cy="0" r="1" gradientUnits="userSpaceOnUse" gradientTransform="translate(176 124) rotate(42) scale(302 278)">
      <stop stop-color="#8B5CF6" stop-opacity="0.30"/>
      <stop offset="1" stop-color="#8B5CF6" stop-opacity="0"/>
    </radialGradient>
    <filter id="shadow" x="74" y="92" width="364" height="344" filterUnits="userSpaceOnUse" color-interpolation-filters="sRGB">
      <feFlood flood-opacity="0" result="BackgroundImageFix"/>
      <feColorMatrix in="SourceAlpha" type="matrix" values="0 0 0 0 0 0 0 0 0 0 0 0 0 0 0 0 0 0 127 0" result="hardAlpha"/>
      <feOffset dy="18"/>
      <feGaussianBlur stdDeviation="18"/>
      <feColorMatrix type="matrix" values="0 0 0 0 0.270588 0 0 0 0 0.145098 0 0 0 0 0.588235 0 0 0 0.35 0"/>
      <feBlend mode="normal" in2="BackgroundImageFix" result="effect1_dropShadow_1_2"/>
      <feBlend mode="normal" in="SourceGraphic" in2="effect1_dropShadow_1_2" result="shape"/>
    </filter>
  </defs>
  <rect x="28" y="28" width="456" height="456" rx="124" fill="url(#bg)"/>
  <rect x="28" y="28" width="456" height="456" rx="124" fill="url(#glow)"/>
  <rect x="44" y="44" width="424" height="424" rx="108" stroke="#FFFFFF" stroke-opacity="0.08" stroke-width="2"/>

  <g filter="url(#shadow)">
    <circle cx="218" cy="220" r="84" stroke="url(#stroke)" stroke-width="34"/>
    <path d="M271 272L350 351" stroke="url(#stroke)" stroke-width="34" stroke-linecap="round"/>
    <path d="M201 164V309C201 337 219 355 249 355C278 355 296 338 296 312V297" stroke="url(#strokeSoft)" stroke-width="30" stroke-linecap="round" stroke-linejoin="round"/>
  </g>

  <circle cx="359" cy="146" r="26" fill="#8B5CF6" fill-opacity="0.18"/>
  <circle cx="359" cy="146" r="9" fill="#C4B5FD"/>
</svg>
